<?xml version="1.0" standalone="no"?>
<!DOCTYPE svg PUBLIC "-//W3C//DTD SVG 20010904//EN"
 "http://www.w3.org/TR/2001/REC-SVG-20010904/DTD/svg10.dtd">
<svg version="1.0" xmlns="http://www.w3.org/2000/svg"
 width="392.000000pt" height="386.000000pt" viewBox="0 0 392.000000 386.000000"
 preserveAspectRatio="xMidYMid meet">

<g transform="translate(0.000000,386.000000) scale(0.100000,-0.100000)"
fill="#000000" stroke="none">
<path d="M1695 3769 c-148 -20 -324 -85 -427 -157 -54 -38 -146 -122 -103 -94
224 146 640 221 855 154 41 -13 102 -38 134 -55 59 -31 158 -120 188 -167 l15
-24 64 29 c53 25 77 30 139 30 94 0 152 -27 219 -101 40 -45 52 -52 96 -59
109 -16 223 -102 260 -198 15 -39 20 -43 73 -59 74 -22 145 -72 137 -97 -4
-14 8 -27 52 -56 256 -170 410 -579 332 -880 -11 -44 -24 -109 -28 -145 -5
-37 -19 -87 -34 -116 -25 -50 -25 -52 -11 -100 32 -100 1 -229 -75 -316 -27
-31 -29 -39 -35 -158 -16 -286 -66 -431 -198 -576 -124 -134 -312 -224 -474
-224 -36 0 -54 -6 -84 -30 -71 -56 -126 -75 -221 -75 -81 -1 -88 -2 -124 -33
-78 -64 -207 -84 -312 -49 -51 18 -52 18 -95 -5 -36 -19 -58 -23 -133 -23 -96
0 -164 21 -213 68 -22 21 -23 21 -70 3 -77 -30 -230 -33 -332 -7 -292 73 -559
306 -631 551 -7 25 -24 53 -36 63 -55 44 -113 165 -113 237 0 19 -11 36 -40
59 -22 18 -54 56 -70 84 -30 54 -34 59 -101 142 -53 66 -104 171 -131 270 -30
112 -30 345 0 456 26 96 72 197 117 259 20 27 52 80 71 119 22 44 50 83 73
102 34 27 39 36 44 86 12 113 103 242 193 275 20 7 34 19 34 28 0 41 65 141
153 233 83 88 89 97 62 91 -54 -11 -144 -66 -191 -116 -25 -27 -59 -77 -74
-112 -22 -47 -36 -66 -59 -76 -41 -16 -123 -106 -154 -166 -13 -27 -30 -76
-37 -109 -10 -46 -21 -70 -52 -103 -22 -24 -52 -69 -67 -101 -15 -32 -42 -78
-60 -102 -50 -68 -99 -178 -128 -286 -22 -85 -26 -118 -26 -248 0 -129 4 -164
26 -246 27 -105 77 -211 130 -281 19 -25 38 -61 42 -79 13 -57 61 -143 108
-190 34 -34 45 -53 50 -86 7 -58 57 -160 100 -206 20 -21 41 -55 48 -75 70
-217 304 -447 554 -543 44 -17 109 -37 145 -45 86 -18 232 -18 304 1 55 15 59
14 88 -6 81 -58 240 -76 348 -38 53 18 65 19 97 8 55 -19 178 -16 239 4 28 10
72 31 98 47 38 25 58 30 105 30 78 0 180 32 236 75 25 20 57 35 72 35 79 0
244 62 356 133 69 45 195 163 254 240 56 72 126 205 147 277 19 62 46 243 46
302 0 28 9 50 34 83 66 86 96 207 76 315 -10 56 -9 68 9 109 11 26 25 81 30
122 6 41 18 99 27 129 12 40 17 92 17 190 0 171 -28 285 -107 445 -64 130
-143 229 -241 302 -39 28 -74 56 -79 61 -64 71 -114 115 -158 136 -41 20 -59
37 -80 74 -53 95 -176 184 -275 199 -28 4 -53 20 -95 60 -79 74 -151 106 -255
111 -46 3 -103 -1 -129 -7 l-45 -12 -57 52 c-137 125 -400 191 -637 158z"/>
<path d="M1548 3430 c-175 -30 -342 -115 -454 -232 -50 -51 -130 -165 -154
-219 -7 -14 -29 -33 -49 -42 -84 -37 -160 -132 -176 -220 -5 -26 -18 -46 -41
-63 -19 -15 -44 -43 -56 -63 -12 -20 -44 -62 -70 -94 -57 -69 -107 -163 -138
-262 -17 -52 -24 -104 -27 -201 -7 -160 10 -247 68 -363 21 -43 39 -85 39 -92
0 -22 49 -122 72 -146 13 -14 22 -40 25 -74 9 -98 62 -199 128 -241 24 -16 37
-36 49 -73 20 -64 66 -127 120 -164 42 -30 123 -61 155 -61 13 0 21 -10 25
-34 10 -52 75 -144 150 -213 81 -74 212 -142 336 -174 102 -26 265 -30 355 -9
l60 14 -120 7 c-131 8 -308 48 -405 91 -156 71 -279 211 -310 354 l-11 49 -66
2 c-87 2 -145 32 -190 97 -18 27 -36 66 -39 88 -5 31 -16 46 -52 74 -25 19
-56 49 -69 66 -31 43 -57 132 -50 174 5 28 2 37 -18 50 -35 23 -80 94 -81 128
0 17 -15 59 -32 93 -45 88 -64 179 -64 303 1 176 57 339 160 462 26 31 60 76
75 98 15 23 41 49 57 58 23 13 32 28 40 65 21 99 78 170 166 208 24 10 44 24
44 32 0 8 17 40 39 73 21 32 50 80 64 106 131 231 435 349 677 263 41 -14 86
-25 100 -23 14 1 57 2 95 3 58 0 80 -5 124 -27 48 -25 57 -27 99 -17 80 18
172 -10 238 -73 26 -24 42 -30 86 -33 94 -6 188 -68 232 -154 13 -24 22 -29
72 -34 95 -10 176 -57 280 -161 79 -79 98 -106 143 -196 62 -126 83 -218 80
-350 -1 -53 5 -119 12 -148 11 -46 11 -62 -3 -116 -15 -59 -15 -65 2 -116 11
-30 20 -71 20 -90 0 -19 7 -62 15 -95 21 -89 19 -226 -6 -315 -36 -131 -102
-244 -199 -340 -54 -55 -105 -95 -140 -112 -31 -14 -64 -36 -75 -49 -22 -24
-110 -69 -137 -69 -9 0 -20 -9 -23 -21 -12 -37 -78 -101 -130 -125 -30 -15
-69 -24 -98 -24 -41 0 -51 -4 -77 -34 -27 -30 -56 -45 -255 -132 -14 -6 0 -10
51 -12 85 -3 160 21 220 72 27 23 54 35 89 40 97 15 175 61 230 136 24 33 46
50 72 58 21 6 61 29 88 49 28 21 76 54 108 73 231 138 396 472 358 726 -6 42
-8 111 -5 153 5 60 2 87 -13 131 -16 47 -17 62 -6 95 15 51 16 119 2 169 -6
21 -12 96 -13 165 -2 112 -6 136 -33 213 -72 205 -211 376 -370 456 -46 22
-103 44 -128 48 -39 5 -50 12 -76 50 -50 73 -147 129 -235 135 -26 2 -51 13
-73 32 -68 58 -185 92 -266 78 -32 -5 -51 -2 -95 19 -47 21 -70 25 -160 26
-58 1 -136 9 -175 18 -74 16 -178 19 -257 6z"/>
<path d="M1517 3263 c-10 -9 -9 -41 2 -47 4 -3 16 1 27 8 15 12 16 16 5 30
-15 17 -24 20 -34 9z"/>
<path d="M1607 3193 c-10 -9 -9 -41 2 -47 4 -3 16 1 27 8 15 12 16 16 5 30
-15 17 -24 20 -34 9z"/>
<path d="M2090 3158 c-24 -40 -24 -42 -4 -62 20 -20 53 -20 82 0 27 19 28 48
2 74 -29 29 -57 25 -80 -12z"/>
<path d="M1884 3125 c-4 -9 -2 -21 3 -26 14 -14 45 1 41 20 -4 22 -37 26 -44
6z"/>
<path d="M1318 3118 c-12 -33 19 -51 41 -25 8 10 7 17 -1 25 -16 16 -35 15
-40 0z"/>
<path d="M2520 3083 c-46 -59 8 -121 68 -76 32 25 31 49 -4 81 -32 28 -38 28
-64 -5z"/>
<path d="M1970 3059 c-16 -28 -6 -49 23 -49 34 0 51 23 37 49 -14 27 -46 27
-60 0z"/>
<path d="M2306 3044 c-10 -26 -7 -34 13 -34 26 0 36 17 21 35 -16 19 -26 19
-34 -1z"/>
<path d="M1460 2995 c-74 -34 -133 -99 -155 -173 -6 -21 -5 -23 13 -13 16 9
24 7 36 -5 9 -8 16 -19 16 -23 0 -17 -31 -33 -51 -28 -20 5 -21 3 -17 -41 6
-64 84 -171 148 -204 70 -35 169 -32 240 8 30 17 70 50 87 73 30 39 33 47 27
94 -3 29 -1 74 4 101 8 39 7 56 -6 82 -13 29 -17 31 -27 18 -15 -21 -49 -14
-53 10 -3 11 4 26 14 33 17 12 17 14 -2 28 -68 51 -204 71 -274 40z m98 -58
c4 -21 -25 -34 -40 -19 -8 8 -8 16 2 27 16 19 34 15 38 -8z m-88 -62 c19 -23
8 -50 -20 -50 -19 0 -26 6 -28 24 -5 35 26 53 48 26z m159 1 c17 -20 2 -46
-25 -46 -26 0 -40 20 -30 45 7 19 40 20 55 1z m86 -66 c9 -27 -1 -40 -30 -40
-29 0 -39 13 -30 40 4 13 15 20 30 20 15 0 26 -7 30 -20z m-137 -83 c4 -20
-25 -34 -40 -19 -15 15 -1 44 19 40 10 -2 19 -11 21 -21z m-130 -36 c2 -13 -1
-28 -7 -34 -14 -14 -51 19 -51 45 0 31 54 21 58 -11z m342 -20 c0 -26 -17 -36
-35 -21 -18 15 -8 40 16 40 12 0 19 -7 19 -19z m-132 -48 c2 -15 -2 -23 -11
-23 -29 0 -47 12 -47 32 0 30 54 21 58 -9z m-113 -47 c16 -12 17 -16 6 -30 -7
-9 -24 -16 -38 -16 -31 0 -42 29 -18 46 23 17 27 17 50 0z"/>
<path d="M2066 2985 c-20 -31 -21 -71 0 -79 30 -12 64 -6 84 14 19 19 19 23 6
49 -25 47 -65 54 -90 16z"/>
<path d="M2392 2966 c-8 -19 -8 -27 3 -36 32 -26 81 13 56 44 -20 23 -46 20
-59 -8z"/>
<path d="M1854 2945 c-4 -9 -2 -21 4 -27 15 -15 44 -1 40 19 -4 23 -36 29 -44
8z"/>
<path d="M2483 2886 c-19 -42 -13 -63 23 -72 31 -8 77 13 82 37 5 25 -37 69
-64 69 -18 0 -29 -9 -41 -34z"/>
<path d="M1944 2874 c-21 -31 -9 -47 32 -42 34 4 42 28 19 52 -22 22 -32 20
-51 -10z"/>
<path d="M1127 2876 c-7 -19 4 -36 24 -36 25 0 25 36 0 43 -11 3 -22 0 -24 -7z"/>
<path d="M2274 2855 c-8 -19 12 -36 33 -28 19 7 12 37 -10 41 -9 2 -20 -4 -23
-13z"/>
<path d="M2903 2829 c-28 -10 -31 -53 -7 -87 20 -29 39 -28 69 3 25 24 31 50
17 71 -11 16 -54 23 -79 13z"/>
<path d="M2036 2804 c-10 -26 -7 -34 13 -34 26 0 36 17 21 35 -16 19 -26 19
-34 -1z"/>
<path d="M2372 2798 c-15 -15 -16 -45 -1 -53 18 -12 59 4 59 23 0 20 -18 42
-35 42 -6 0 -16 -5 -23 -12z"/>
<path d="M1110 2747 c0 -35 23 -52 50 -37 34 18 23 54 -17 58 -29 3 -33 0 -33
-21z"/>
<path d="M953 2743 c-13 -5 -18 -60 -7 -87 4 -10 18 -16 35 -16 50 0 90 61 57
88 -16 12 -69 22 -85 15z"/>
<path d="M1971 2727 c-19 -19 -12 -37 14 -37 18 0 25 5 25 19 0 23 -23 34 -39
18z"/>
<path d="M2456 2714 c-4 -10 -2 -22 3 -27 14 -14 43 0 39 20 -4 24 -34 28 -42
7z"/>
<path d="M3004 2676 c-7 -19 3 -65 18 -83 28 -34 92 16 86 66 -3 23 -8 26 -51
29 -35 2 -49 -1 -53 -12z"/>
<path d="M2577 2646 c-52 -14 -82 -37 -103 -78 -33 -64 -6 -93 76 -82 32 4 50
11 50 20 0 8 5 14 11 14 19 0 -19 -51 -82 -111 -75 -71 -77 -91 -10 -142 26
-20 55 -37 63 -37 19 0 48 33 81 91 30 51 73 96 84 86 3 -4 1 -7 -5 -7 -19 0
-15 -105 4 -124 19 -20 28 -20 63 -1 59 30 88 144 57 219 -31 75 -122 145
-206 159 -19 3 -56 0 -83 -7z m129 -25 c115 -52 185 -180 141 -258 -11 -20
-12 -15 -12 37 0 49 -5 65 -31 102 -17 24 -55 58 -85 76 -47 29 -61 33 -109
29 -30 -2 -64 -7 -74 -12 -14 -6 -17 -5 -11 4 11 20 66 40 105 40 19 0 53 -8
76 -18z m-134 -214 c-40 -40 -62 -71 -62 -85 0 -13 -4 -20 -10 -17 -5 3 -10
13 -10 22 0 17 130 156 139 148 3 -3 -23 -34 -57 -68z"/>
<path d="M2893 2653 c-17 -6 -17 -34 0 -57 17 -23 45 -11 53 21 9 34 -17 51
-53 36z"/>
<path d="M1122 2633 c2 -10 12 -18 23 -18 11 0 21 8 23 18 3 13 -3 17 -23 17
-20 0 -26 -4 -23 -17z"/>
<path d="M1230 2630 c0 -24 35 -28 44 -4 9 23 8 24 -19 24 -18 0 -25 -5 -25
-20z"/>
<path d="M2084 2639 c-3 -6 -20 -9 -36 -7 -22 4 -34 -1 -48 -19 -10 -13 -29
-23 -43 -23 -18 0 -31 -10 -46 -36 -27 -46 -27 -80 1 -95 13 -7 29 -18 36 -26
20 -19 39 -16 57 10 l16 22 24 -28 c35 -39 47 -98 43 -199 -1 -48 1 -88 5 -88
8 0 68 29 76 36 3 2 10 58 17 124 14 144 33 185 82 185 62 0 81 65 32 113 -36
36 -130 56 -130 28 0 -20 -20 -21 -46 -1 -23 17 -31 18 -40 4z m133 -45 c-9
-9 -28 6 -21 18 4 6 10 6 17 -1 6 -6 8 -13 4 -17z m53 -5 c0 -24 -23 -21 -28
4 -2 10 3 17 12 17 10 0 16 -9 16 -21z m-115 1 c-3 -5 -10 -10 -16 -10 -5 0
-9 5 -9 10 0 6 7 10 16 10 8 0 12 -4 9 -10z m-74 -13 c-1 -12 -15 -9 -19 4 -3
6 1 10 8 8 6 -3 11 -8 11 -12z m-51 -7 c0 -5 -7 -10 -15 -10 -8 0 -15 5 -15
10 0 6 7 10 15 10 8 0 15 -4 15 -10z m170 -30 c0 -5 -4 -10 -10 -10 -5 0 -10
5 -10 10 0 6 5 10 10 10 6 0 10 -4 10 -10z m-220 -25 c0 -8 -7 -15 -15 -15 -8
0 -15 7 -15 15 0 8 7 15 15 15 8 0 15 -7 15 -15z m41 -8 c-13 -13 -26 -3 -16
12 3 6 11 8 17 5 6 -4 6 -10 -1 -17z m159 -9 c0 -13 -7 -43 -14 -68 -14 -43
-15 -43 -15 -13 -1 17 -5 43 -11 57 -7 20 -6 27 8 35 26 15 32 13 32 -11z
m-93 -6 c21 -13 43 -79 42 -124 l-1 -43 -8 48 c-5 27 -20 66 -34 88 -25 37
-25 47 1 31z m83 -217 l-7 -50 -2 46 c0 25 2 49 6 52 10 11 11 5 3 -48z m-56
-42 c4 -34 3 -53 -4 -53 -6 0 -10 24 -10 57 0 68 5 66 14 -4z"/>
<path d="M2391 2631 c-12 -21 -5 -31 20 -31 24 0 33 18 19 35 -17 20 -27 19
-39 -4z"/>
<path d="M930 2436 c0 -74 5 -159 11 -188 27 -123 89 -211 177 -251 50 -21
154 -34 197 -23 l28 7 -22 23 c-19 20 -35 25 -96 28 -41 2 -79 8 -84 13 -7 7
16 9 65 7 l76 -4 -38 55 -39 55 -73 4 c-95 6 -115 24 -22 20 39 -2 70 -1 70 2
0 4 -12 24 -26 46 -22 32 -33 40 -58 40 -17 0 -42 4 -56 8 -21 6 -18 8 22 12
l46 5 -54 88 c-62 99 -65 116 -4 28 22 -33 44 -62 49 -66 6 -3 15 13 22 35 17
56 24 42 9 -18 -13 -48 -12 -51 15 -86 15 -20 31 -36 35 -36 9 0 37 71 43 110
3 17 5 14 6 -12 0 -21 -6 -58 -14 -83 -17 -49 -17 -50 37 -113 15 -18 29 -32
31 -32 2 0 12 26 21 58 10 31 19 62 21 67 11 34 2 -61 -10 -100 -13 -45 -13
-50 4 -74 11 -14 28 -34 39 -44 19 -17 20 -16 43 45 88 237 -71 418 -443 502
l-28 6 0 -134z"/>
<path d="M3013 2513 c-17 -6 -16 -34 0 -57 11 -15 17 -17 35 -7 48 26 15 85
-35 64z"/>
<path d="M3120 2501 c0 -26 17 -36 35 -21 23 19 18 40 -10 40 -18 0 -25 -5
-25 -19z"/>
<path d="M1631 2421 c-12 -21 -5 -31 20 -31 24 0 33 18 19 35 -17 20 -27 19
-39 -4z"/>
<path d="M3140 2401 c0 -28 21 -37 36 -16 16 22 10 35 -17 35 -12 0 -19 -7
-19 -19z"/>
<path d="M1800 2369 c-16 -28 -6 -49 23 -49 34 0 51 23 37 49 -14 27 -46 27
-60 0z"/>
<path d="M1560 2320 c-9 -16 -8 -22 5 -26 8 -3 22 -3 30 0 13 4 14 10 5 26 -6
11 -15 20 -20 20 -5 0 -14 -9 -20 -20z"/>
<path d="M2336 2255 c-11 -29 -7 -36 17 -33 14 2 22 10 22 23 0 24 -30 32 -39
10z"/>
<path d="M1685 2233 c-29 -7 -65 -43 -80 -80 -8 -18 -20 -33 -28 -33 -7 0 -23
-10 -35 -23 -56 -59 -70 -174 -28 -224 24 -28 81 -53 123 -53 11 0 28 -9 39
-21 84 -93 204 -48 245 93 12 44 2 33 -22 -22 -12 -28 -37 -64 -56 -80 -49
-43 -93 -39 -153 15 -14 12 -51 27 -82 34 -94 20 -125 75 -98 173 12 43 55 98
76 98 8 0 21 15 29 34 32 76 97 94 200 55 31 -12 59 -19 61 -16 7 7 -93 43
-136 49 -19 3 -44 3 -55 1z"/>
<path d="M1660 2180 c-12 -12 -25 -32 -30 -46 -5 -13 -20 -29 -34 -35 -52 -24
-86 -144 -55 -201 13 -23 67 -48 106 -48 17 0 33 -8 40 -18 14 -23 73 -52 104
-52 29 0 95 70 104 110 8 36 -9 65 -19 33 -12 -37 -51 -65 -87 -61 -30 3 -34
7 -37 36 l-3 33 -24 -25 c-42 -45 -86 -29 -109 39 -20 56 1 95 52 95 23 0 30
14 12 25 -5 3 -10 17 -10 31 0 18 9 29 35 41 34 16 38 16 85 -4 48 -21 51 -21
60 -3 16 30 12 35 -37 53 -66 24 -128 22 -153 -3z"/>
<path d="M2420 2174 c-12 -22 -12 -27 0 -34 39 -25 80 3 60 39 -15 29 -44 26
-60 -5z"/>
<path d="M597 2150 c-15 -12 -27 -30 -27 -40 0 -24 48 -62 74 -58 30 4 44 52
25 86 -19 35 -39 38 -72 12z"/>
<path d="M2723 2133 c-53 -18 -130 -87 -161 -142 l-23 -41 35 0 c20 0 36 4 36
9 0 13 80 100 104 112 14 8 9 -1 -15 -27 -33 -36 -59 -74 -59 -88 0 -3 29 -6
64 -6 61 0 65 1 90 35 31 40 78 86 84 81 2 -2 -8 -15 -21 -28 -14 -14 -32 -39
-41 -57 l-17 -31 55 0 c51 0 57 3 82 35 14 19 31 35 36 35 5 0 -2 -14 -16 -31
-14 -17 -26 -35 -26 -40 0 -5 28 -9 63 -10 34 0 82 -4 107 -9 37 -7 30 -8 -42
-6 -85 2 -86 2 -76 -18 6 -12 17 -29 26 -38 9 -11 11 -18 4 -18 -7 0 -24 18
-38 40 -26 38 -29 40 -80 40 -30 0 -54 -3 -54 -6 0 -13 25 -52 53 -81 17 -18
26 -33 20 -33 -12 0 -76 68 -91 97 -8 15 -20 17 -76 15 l-66 -4 14 -26 c8 -15
26 -40 41 -56 14 -15 24 -30 22 -33 -3 -2 -29 23 -59 57 -57 62 -75 69 -136
52 l-23 -7 33 -55 c41 -67 102 -115 176 -136 123 -36 290 25 464 168 l47 39
-37 32 c-186 164 -364 228 -499 180z"/>
<path d="M772 2104 c-33 -23 -26 -63 16 -87 31 -19 34 -19 52 -2 36 32 19 105
-23 105 -12 0 -33 -7 -45 -16z"/>
<path d="M1720 2104 c0 -8 5 -12 10 -9 6 4 8 11 5 16 -9 14 -15 11 -15 -7z"/>
<path d="M1755 2110 c-3 -5 -1 -10 4 -10 6 0 11 5 11 10 0 6 -2 10 -4 10 -3 0
-8 -4 -11 -10z"/>
<path d="M1690 2091 c0 -5 5 -13 10 -16 6 -3 10 -2 10 4 0 5 -4 13 -10 16 -5
3 -10 2 -10 -4z"/>
<path d="M2301 2071 c-12 -21 -5 -31 20 -31 24 0 33 18 19 35 -17 20 -27 19
-39 -4z"/>
<path d="M936 2005 c-7 -20 33 -43 44 -24 5 7 6 18 3 26 -7 18 -39 17 -47 -2z"/>
<path d="M688 1999 c-34 -19 -11 -69 31 -69 17 0 25 49 11 65 -15 17 -19 18
-42 4z"/>
<path d="M1638 1993 c7 -3 16 -2 19 1 4 3 -2 6 -13 5 -11 0 -14 -3 -6 -6z"/>
<path d="M2135 1958 c-15 -12 -34 -36 -41 -55 -8 -18 -20 -33 -27 -33 -17 0
-50 -36 -71 -77 -18 -37 -21 -134 -5 -165 13 -25 84 -57 127 -58 17 0 32 -4
32 -10 0 -15 72 -58 100 -60 46 -4 58 0 91 27 31 27 68 93 69 123 0 8 -11 -8
-24 -35 -29 -64 -77 -105 -119 -105 -32 0 -107 42 -107 60 0 6 -15 10 -32 10
-43 1 -114 33 -127 58 -16 30 -13 97 4 140 18 41 52 82 71 82 6 0 17 14 24 30
7 17 26 42 42 55 38 32 85 32 161 1 31 -13 57 -20 57 -16 0 15 -109 50 -154
50 -29 0 -52 -7 -71 -22z"/>
<path d="M1640 1960 c0 -5 5 -10 10 -10 6 0 10 5 10 10 0 6 -4 10 -10 10 -5 0
-10 -4 -10 -10z"/>
<path d="M860 1945 c-15 -18 -8 -40 18 -54 26 -14 47 9 38 44 -7 28 -36 34
-56 10z"/>
<path d="M1014 1936 c-8 -21 3 -36 27 -36 15 0 20 6 17 22 -4 27 -35 37 -44
14z"/>
<path d="M2154 1935 c-12 -8 -27 -27 -33 -43 -7 -16 -25 -39 -41 -51 -41 -30
-62 -76 -62 -134 0 -65 29 -97 98 -105 32 -3 54 -12 62 -24 17 -24 65 -48 96
-48 51 0 129 103 112 147 -7 17 -8 17 -18 -2 -25 -46 -51 -65 -90 -65 -37 0
-38 1 -38 35 0 38 -14 47 -23 15 -6 -22 -53 -37 -76 -23 -25 15 -54 81 -47
107 6 25 48 49 71 40 17 -7 21 11 5 21 -18 11 -11 64 9 75 30 16 83 12 117 -9
l32 -19 11 25 c15 32 10 38 -46 57 -58 20 -112 20 -139 1z"/>
<path d="M1645 1930 c-3 -5 -2 -10 4 -10 5 0 13 5 16 10 3 6 2 10 -4 10 -5 0
-13 -4 -16 -10z"/>
<path d="M1825 1920 c3 -5 11 -10 16 -10 6 0 7 5 4 10 -3 6 -11 10 -16 10 -6
0 -7 -4 -4 -10z"/>
<path d="M1680 1909 c0 -5 5 -7 10 -4 6 3 10 8 10 11 0 2 -4 4 -10 4 -5 0 -10
-5 -10 -11z"/>
<path d="M604 1895 c-19 -15 -19 -15 0 -30 28 -21 36 -19 36 9 0 32 -12 39
-36 21z"/>
<path d="M1770 1895 c0 -8 2 -15 4 -15 2 0 6 7 10 15 3 8 1 15 -4 15 -6 0 -10
-7 -10 -15z"/>
<path d="M1800 1900 c0 -5 5 -10 10 -10 6 0 10 5 10 10 0 6 -4 10 -10 10 -5 0
-10 -4 -10 -10z"/>
<path d="M2246 1861 c-4 -7 -5 -15 -2 -18 9 -9 19 4 14 18 -4 11 -6 11 -12 0z"/>
<path d="M782 1848 c-8 -8 -9 -15 -1 -25 18 -21 39 -15 39 12 0 27 -18 33 -38
13z"/>
<path d="M2185 1830 c3 -5 8 -10 11 -10 2 0 4 5 4 10 0 6 -5 10 -11 10 -5 0
-7 -4 -4 -10z"/>
<path d="M1045 1816 c-70 -31 -124 -130 -110 -205 20 -113 63 -178 143 -213
51 -23 115 -20 156 7 52 34 40 76 -31 106 -37 16 -48 17 -62 7 -14 -11 -14
-11 -4 3 15 19 67 35 141 45 29 4 63 15 75 24 21 18 21 18 3 76 -31 99 -34
100 -146 49 -43 -19 -90 -34 -106 -34 -20 1 -22 3 -9 6 22 4 65 71 65 100 0
42 -54 56 -115 29z m-12 -48 c-35 -39 -46 -71 -46 -130 1 -107 64 -200 153
-227 35 -11 35 -11 -12 -7 -63 5 -109 40 -143 111 -48 96 -34 203 31 254 35
27 43 27 17 -1z m317 -143 c0 -21 -35 -36 -115 -52 -82 -15 -98 -16 -91 -4 3
5 41 14 85 21 54 8 86 18 97 31 21 23 24 23 24 4z"/>
<path d="M1436 1735 c-11 -29 -7 -36 17 -33 14 2 22 10 22 23 0 24 -30 32 -39
10z"/>
<path d="M2110 1746 c0 -9 30 -14 35 -6 4 6 -3 10 -14 10 -12 0 -21 -2 -21 -4z"/>
<path d="M1590 1719 c-15 -28 -6 -49 23 -49 22 0 47 16 47 31 0 13 -31 39 -45
39 -8 0 -19 -9 -25 -21z"/>
<path d="M660 1715 c-11 -13 -11 -19 3 -33 20 -19 41 -5 35 24 -4 24 -22 28
-38 9z"/>
<path d="M2125 1710 c-3 -5 1 -10 9 -10 9 0 16 5 16 10 0 6 -4 10 -9 10 -6 0
-13 -4 -16 -10z"/>
<path d="M2135 1680 c-3 -5 1 -10 9 -10 9 0 16 5 16 10 0 6 -4 10 -9 10 -6 0
-13 -4 -16 -10z"/>
<path d="M2866 1675 c-8 -22 1 -35 25 -35 15 0 20 6 17 22 -4 27 -33 36 -42
13z"/>
<path d="M2310 1670 c0 -5 7 -10 16 -10 8 0 12 5 9 10 -3 6 -10 10 -16 10 -5
0 -9 -4 -9 -10z"/>
<path d="M2170 1659 c0 -5 5 -7 10 -4 6 3 10 8 10 11 0 2 -4 4 -10 4 -5 0 -10
-5 -10 -11z"/>
<path d="M2256 1645 c4 -8 8 -15 10 -15 2 0 4 7 4 15 0 8 -4 15 -10 15 -5 0
-7 -7 -4 -15z"/>
<path d="M2285 1650 c3 -5 8 -10 11 -10 2 0 4 5 4 10 0 6 -5 10 -11 10 -5 0
-7 -4 -4 -10z"/>
<path d="M2616 1635 c-8 -22 1 -35 25 -35 15 0 20 6 17 22 -4 27 -33 36 -42
13z"/>
<path d="M2760 1615 c-18 -22 -8 -50 21 -53 37 -4 53 18 33 46 -18 25 -37 28
-54 7z"/>
<path d="M3034 1596 c-7 -18 1 -46 13 -46 4 0 15 5 23 10 11 7 12 14 4 27 -15
24 -33 28 -40 9z"/>
<path d="M1460 1581 c0 -27 19 -36 37 -18 18 18 9 37 -18 37 -12 0 -19 -7 -19
-19z"/>
<path d="M779 1541 c-23 -19 -24 -19 -5 -40 23 -26 42 -27 54 -3 10 19 -1 62
-17 62 -5 0 -19 -9 -32 -19z"/>
<path d="M1662 1541 c-82 -28 -142 -89 -167 -170 -5 -16 -4 -21 4 -17 21 13
51 -4 51 -29 0 -32 -38 -45 -57 -19 -12 17 -13 16 -13 -7 1 -87 83 -213 162
-248 103 -46 237 -17 310 68 35 41 35 42 41 157 3 75 2 125 -5 140 -11 23 -12
23 -29 8 -21 -19 -46 -13 -56 12 -4 11 1 23 14 34 20 16 20 16 -12 39 -40 27
-116 51 -159 51 -17 -1 -55 -9 -84 -19z m86 -64 c4 -20 -25 -34 -40 -19 -15
15 -1 44 19 40 10 -2 19 -11 21 -21z m62 -52 c19 -23 8 -50 -20 -50 -16 0 -26
6 -28 18 -4 18 14 47 28 47 4 0 13 -7 20 -15z m-146 -17 c16 -27 -14 -54 -43
-39 -24 13 -27 31 -9 49 16 16 38 12 52 -10z m230 -44 c22 -21 3 -56 -27 -52
-25 3 -34 32 -17 53 16 19 25 19 44 -1z m-131 -88 c9 -22 -19 -42 -37 -26 -19
15 -10 40 14 40 10 0 20 -6 23 -14z m-139 -22 c24 -24 21 -56 -5 -52 -27 4
-44 30 -36 52 8 20 21 20 41 0z m356 -45 c0 -12 -7 -19 -19 -19 -26 0 -36 17
-21 35 15 18 40 8 40 -16z m-149 -19 c23 -13 25 -38 4 -47 -23 -8 -58 26 -44
44 14 16 15 16 40 3z m-93 -87 c3 -17 -3 -24 -22 -29 -30 -7 -46 1 -46 26 0
36 63 39 68 3z"/>
<path d="M2674 1545 c-7 -18 3 -35 21 -35 18 0 26 15 19 34 -8 20 -33 21 -40
1z"/>
<path d="M2932 1538 c-17 -17 -15 -57 2 -64 19 -7 56 13 56 30 0 12 -30 46
-41 46 -3 0 -10 -5 -17 -12z"/>
<path d="M2797 1482 c-20 -21 -22 -54 -6 -84 9 -16 17 -19 41 -14 62 12 76 49
33 91 -29 30 -46 31 -68 7z"/>
<path d="M2066 1441 c-10 -16 6 -42 23 -39 9 2 17 13 19 26 3 16 -2 22 -17 22
-11 0 -22 -4 -25 -9z"/>
<path d="M2194 1404 c-4 -14 -2 -30 4 -36 16 -16 62 -1 62 20 0 44 -56 58 -66
16z"/>
<path d="M2967 1402 c-17 -19 -22 -57 -11 -86 12 -33 104 -7 104 29 0 18 -49
75 -64 75 -7 0 -20 -8 -29 -18z"/>
<path d="M1390 1381 c0 -24 13 -33 35 -25 23 9 14 38 -13 42 -16 3 -22 -2 -22
-17z"/>
<path d="M2430 1356 c-34 -20 -56 -40 -58 -53 -2 -11 12 -39 32 -64 52 -65 88
-127 83 -141 -4 -9 -6 -8 -6 3 -1 22 -94 54 -119 40 -67 -36 1 -154 102 -180
201 -50 394 197 264 337 -23 24 -72 30 -84 10 -15 -24 -22 -103 -10 -117 9
-11 8 -13 -4 -10 -8 3 -36 47 -61 98 -40 82 -61 111 -79 110 -3 0 -30 -15 -60
-33z m89 -9 c16 -20 72 -159 66 -165 -3 -3 -20 29 -39 70 -19 42 -45 83 -57
92 -23 16 -23 16 -2 16 11 0 26 -6 32 -13z m231 -164 c0 -156 -244 -274 -342
-165 l-23 26 27 -17 c75 -47 194 -21 266 57 42 46 67 111 55 142 -4 12 -3 15
5 10 7 -4 12 -28 12 -53z"/>
<path d="M1294 1355 c-4 -9 -2 -21 4 -27 15 -15 44 -1 40 19 -4 23 -36 29 -44
8z"/>
<path d="M921 1336 c-16 -19 -6 -36 20 -36 15 0 20 6 17 22 -4 27 -21 33 -37
14z"/>
<path d="M1139 1266 c-17 -36 1 -80 33 -84 37 -4 83 37 73 67 -13 43 -89 55
-106 17z"/>
<path d="M2154 1275 c-4 -9 -2 -21 4 -27 15 -15 44 -1 40 19 -4 23 -36 29 -44
8z"/>
<path d="M1320 1265 c-19 -22 2 -67 27 -58 44 15 52 33 27 57 -20 20 -38 20
-54 1z"/>
<path d="M1022 1138 c-28 -28 -6 -98 32 -98 27 0 76 35 76 55 0 19 -49 55 -74
55 -12 0 -27 -5 -34 -12z"/>
<path d="M1370 1125 c0 -28 21 -33 40 -10 15 18 5 35 -21 35 -14 0 -19 -7 -19
-25z"/>
<path d="M1200 1130 c-11 -7 -12 -15 -4 -37 11 -31 37 -33 64 -7 13 14 12 17
-9 35 -26 22 -30 22 -51 9z"/>
<path d="M2126 999 c-33 -39 -33 -66 -1 -81 30 -14 72 -2 89 24 13 22 -7 62
-40 76 -20 10 -26 7 -48 -19z"/>
<path d="M1250 985 c0 -28 3 -29 30 -15 23 13 16 40 -11 40 -14 0 -19 -7 -19
-25z"/>
<path d="M1909 968 c-8 -16 -8 -22 2 -29 18 -11 50 8 43 25 -9 24 -33 26 -45
4z"/>
<path d="M2742 968 c3 -24 17 -32 36 -20 18 12 4 42 -20 42 -14 0 -19 -6 -16
-22z"/>
<path d="M1422 908 c2 -13 10 -24 19 -26 21 -4 34 28 17 40 -24 15 -39 9 -36
-14z"/>
<path d="M1604 919 c-3 -6 1 -18 10 -27 16 -16 18 -16 32 2 11 16 11 22 1 28
-17 11 -35 10 -43 -3z"/>
<path d="M2002 908 c-5 -7 -12 -22 -14 -33 -2 -17 3 -20 32 -20 40 0 51 22 25
49 -20 19 -29 20 -43 4z"/>
<path d="M1546 833 c-17 -17 2 -73 25 -73 13 0 39 31 39 45 0 14 -54 37 -64
28z"/>
<path d="M2092 827 c-6 -7 -15 -24 -21 -39 -8 -21 -6 -29 8 -42 34 -31 101
-13 101 27 0 52 -60 88 -88 54z"/>
<path d="M1354 815 c-14 -35 24 -68 51 -45 8 7 15 20 15 30 0 30 -56 42 -66
15z"/>
<path d="M2417 803 c-15 -14 -7 -43 12 -43 26 0 36 17 21 35 -14 16 -23 19
-33 8z"/>
<path d="M1874 785 c-4 -9 -2 -21 3 -26 14 -14 45 1 41 20 -4 22 -37 26 -44 6z"/>
<path d="M1456 724 c-19 -18 -20 -34 -4 -68 21 -47 68 -44 94 6 18 34 12 46
-32 64 -41 17 -39 17 -58 -2z"/>
<path d="M1642 728 c-19 -19 -14 -66 8 -88 26 -26 36 -25 65 5 34 33 32 61 -5
80 -35 18 -52 19 -68 3z"/>
<path d="M1966 721 c-31 -34 -10 -69 32 -54 24 9 32 24 22 44 -14 25 -36 30
-54 10z"/>
</g>
</svg>
